<?xml version="1.0" standalone="no"?>
<!DOCTYPE svg PUBLIC "-//W3C//DTD SVG 20010904//EN"
 "http://www.w3.org/TR/2001/REC-SVG-20010904/DTD/svg10.dtd">
<svg version="1.0" xmlns="http://www.w3.org/2000/svg"
 width="447.000000pt" height="447.000000pt" viewBox="0 0 447.000000 447.000000"
 preserveAspectRatio="xMidYMid meet">

<g transform="translate(0.000000,447.000000) scale(0.100000,-0.100000)"
fill="#000000" stroke="none">
<path d="M2095 4408 c-294 -15 -584 -91 -850 -225 -389 -195 -697 -478 -923
-849 -336 -550 -412 -1236 -206 -1863 205 -623 707 -1147 1320 -1376 137 -52
196 -48 229 15 12 23 15 73 15 251 l0 222 -32 -7 c-127 -25 -359 -13 -466 24
-122 43 -205 123 -259 250 -63 150 -142 255 -247 330 -27 19 -59 48 -70 63
l-21 29 25 20 c21 17 35 20 88 15 130 -10 256 -102 369 -269 61 -90 129 -148
210 -178 51 -20 71 -21 168 -17 101 5 175 20 222 46 12 6 23 30 31 68 14 67
62 166 98 204 14 15 22 29 17 32 -4 2 -35 8 -68 11 -162 19 -362 83 -493 158
-278 159 -422 443 -439 863 -6 173 9 278 59 408 29 77 95 185 144 237 l24 26
-22 59 c-19 52 -22 80 -22 200 0 124 4 151 28 230 15 50 32 95 37 100 18 18
123 7 203 -19 100 -34 274 -116 351 -166 l60 -39 80 19 c164 38 296 53 480 53
184 0 316 -15 480 -53 l80 -19 60 38 c199 126 430 213 520 197 32 -6 35 -11
59 -84 53 -162 60 -335 17 -457 l-21 -59 24 -26 c49 -52 115 -161 145 -238 48
-127 64 -241 57 -412 -17 -413 -152 -684 -421 -847 -138 -82 -352 -153 -516
-169 -38 -4 -69 -9 -69 -11 0 -3 15 -24 34 -47 19 -23 45 -64 56 -91 45 -103
50 -159 50 -543 0 -290 3 -369 14 -397 29 -68 89 -73 230 -20 521 195 959 596
1212 1111 213 435 275 946 174 1443 -80 392 -290 786 -580 1085 -460 474
-1067 709 -1745 674z"/>
</g>
</svg>
