<?xml version="1.0" standalone="no"?>
<!DOCTYPE svg PUBLIC "-//W3C//DTD SVG 20010904//EN"
 "http://www.w3.org/TR/2001/REC-SVG-20010904/DTD/svg10.dtd">
<svg version="1.0" xmlns="http://www.w3.org/2000/svg"
 width="512.000000pt" height="512.000000pt" viewBox="0 0 512.000000 512.000000"
 preserveAspectRatio="xMidYMid meet">

<g transform="translate(0.000000,512.000000) scale(0.100000,-0.100000)"
fill="#000000" stroke="none">
<path d="M1006 5109 c-253 -33 -485 -147 -666 -329 -183 -182 -298 -417 -330
-673 -16 -127 -13 -1947 3 -1947 9 0 9 -2 -1 -8 -9 -7 -12 -57 -10 -217 l3
-208 254 -114 c140 -62 256 -111 259 -108 3 3 7 573 9 1267 4 1400 2 1342 70
1481 27 52 58 94 117 152 93 92 167 136 282 165 75 19 116 20 1565 20 1054 0
1503 -3 1541 -11 229 -48 434 -256 478 -484 8 -44 10 -471 8 -1570 l-3 -1510
-26 -72 c-59 -159 -177 -291 -324 -358 -127 -59 -122 -59 -853 -65 l-673 -5
578 -258 577 -259 120 7 c320 19 554 114 768 314 212 198 334 453 359 751 15
182 6 3025 -9 3102 -33 161 -111 342 -200 468 -65 92 -194 216 -295 283 -93
61 -226 124 -322 150 -170 47 -169 47 -1735 46 -811 -1 -1506 -6 -1544 -10z"/>
<path d="M3858 4301 c-73 -29 -116 -60 -158 -112 -81 -102 -98 -245 -43 -360
38 -81 91 -134 172 -172 170 -80 378 -4 458 168 39 84 43 187 12 270 -31 82
-121 173 -202 203 -73 28 -173 29 -239 3z"/>
<path d="M2412 4050 c-254 -27 -515 -124 -714 -267 -433 -309 -667 -808 -627
-1336 14 -197 62 -374 145 -541 58 -116 96 -176 112 -176 7 0 11 -4 8 -9 -9
-14 81 -128 175 -222 281 -279 648 -430 1044 -430 399 -1 751 140 1045 417
178 169 344 452 405 691 56 225 63 469 19 688 -36 175 -119 371 -232 544 -76
117 -268 308 -391 390 -174 116 -377 198 -579 235 -105 20 -302 27 -410 16z
m367 -636 c95 -24 216 -79 300 -137 117 -80 240 -236 300 -381 83 -199 87
-439 10 -646 -72 -196 -232 -377 -418 -474 -240 -125 -535 -133 -777 -21 -397
183 -597 609 -489 1041 8 32 38 106 67 163 40 81 68 121 132 189 127 133 227
199 383 252 155 51 324 56 492 14z"/>
</g>
</svg>
