<?xml version="1.0" standalone="no"?>
<!DOCTYPE svg PUBLIC "-//W3C//DTD SVG 20010904//EN"
 "http://www.w3.org/TR/2001/REC-SVG-20010904/DTD/svg10.dtd">
<svg version="1.0" xmlns="http://www.w3.org/2000/svg"
 width="1254.000000pt" height="1254.000000pt" viewBox="0 0 1254.000000 1254.000000"
 preserveAspectRatio="xMidYMid meet">

<g transform="translate(0.000000,1254.000000) scale(0.100000,-0.100000)"
fill="#000000" stroke="none">
<path d="M5910 11699 c-887 -63 -1760 -422 -2473 -1017 -389 -325 -773 -786
-1027 -1236 -300 -530 -490 -1098 -572 -1711 -20 -150 -23 -211 -22 -515 0
-412 13 -551 81 -882 14 -71 30 -128 35 -128 10 0 11 -5 -7 133 -19 159 -30
317 -20 317 4 0 53 7 109 15 153 22 247 33 406 50 251 26 661 64 773 71 l107
7 0 -45 c0 -25 -3 -79 -6 -120 l-7 -75 -161 -43 c-357 -94 -768 -245 -1051
-387 -218 -109 -403 -215 -348 -198 64 18 347 82 563 126 419 85 858 155 1245
199 55 6 136 15 180 20 44 5 118 12 164 16 l84 7 -6 81 c-6 75 1 162 19 260
l7 39 -49 -7 c-27 -4 -129 -20 -226 -37 -97 -16 -181 -29 -186 -29 -11 0 -25
191 -14 202 4 4 123 10 265 14 l258 7 29 56 c15 31 39 72 52 91 46 68 49 64
-38 57 l-79 -7 -121 128 c-66 70 -184 195 -262 279 l-142 151 0 56 c0 31 4 56
8 56 4 0 93 -80 197 -177 353 -331 495 -449 513 -431 7 7 -4 22 -41 51 -59 46
-180 152 -277 242 -36 33 -113 103 -170 155 -230 208 -230 208 -230 257 l0 45
24 -19 c55 -43 291 -241 673 -565 51 -43 97 -78 102 -78 31 0 10 26 -82 101
-56 46 -104 85 -107 88 -8 9 -286 243 -502 423 l-108 89 0 51 c0 37 3 49 13
45 7 -3 101 -72 208 -154 706 -542 638 -484 635 -538 -1 -25 0 -45 4 -45 3 0
57 52 120 115 163 163 283 240 457 290 48 14 123 29 166 32 l77 6 0 1079 c0
650 -4 1078 -9 1076 -5 -1 -49 -35 -98 -75 -48 -40 -162 -132 -253 -205 l-165
-134 -3 -191 -2 -191 -48 -20 c-26 -10 -93 -37 -150 -58 l-102 -39 2 -677 c2
-373 1 -678 -1 -678 -5 0 -614 435 -757 541 l-91 67 -7 103 c-4 57 -12 109
-18 116 -15 19 -72 16 -90 -4 -11 -13 -17 -52 -22 -127 l-7 -109 -357 -361
c-350 -353 -510 -516 -842 -861 -209 -217 -195 -203 -216 -207 -17 -3 -19 5
-22 82 -4 114 15 486 32 636 70 588 269 1219 544 1719 179 326 330 545 558
810 371 430 817 782 1315 1039 227 117 376 182 584 252 533 182 1100 256 1635
213 74 -6 270 -12 435 -14 307 -3 423 -13 645 -55 58 -10 129 -26 159 -34 177
-49 -165 86 -392 154 -478 144 -1010 204 -1497 169z m-1082 -2779 c5 -61 -4
-85 -33 -98 -50 -23 -55 -17 -55 53 0 64 1 65 33 79 45 20 52 16 55 -34z
m-208 -99 c0 -63 -2 -69 -22 -75 -45 -12 -48 -9 -48 54 0 55 2 61 28 74 15 8
30 15 35 16 4 0 7 -31 7 -69z m-100 -36 c0 -70 2 -68 -67 -89 -22 -7 -23 -5
-23 59 0 65 1 66 33 80 54 24 57 21 57 -50z m308 -121 l-3 -59 -43 -14 c-24
-7 -45 -12 -46 -10 -2 2 -1 33 3 68 6 62 7 65 41 76 19 7 39 9 43 5 4 -4 7
-34 5 -66z m-208 -64 c0 -67 -1 -71 -26 -80 -37 -15 -44 -6 -44 60 0 54 2 61
28 74 15 8 30 15 35 16 4 0 7 -32 7 -70z m-100 -34 c0 -63 0 -64 -31 -70 -59
-12 -60 -11 -57 52 3 55 4 57 38 69 19 7 38 12 43 12 4 1 7 -28 7 -63z m308
-111 c-3 -47 -4 -48 -46 -61 -51 -14 -55 -10 -50 57 3 40 5 43 43 54 22 7 44
9 48 5 5 -4 7 -29 5 -55z m-208 -40 c0 -37 -4 -55 -12 -55 -7 0 -23 -3 -35 -6
-22 -6 -23 -3 -23 44 0 46 2 51 28 60 42 16 42 16 42 -43z m-107 -76 c-4 -4
-25 -11 -46 -14 l-39 -8 4 49 c3 47 5 49 43 60 l40 11 3 -45 c2 -25 0 -48 -5
-53z m317 -72 l0 -64 -39 -11 c-21 -7 -41 -12 -45 -12 -3 0 -6 29 -6 65 0 70
10 83 68 84 21 1 22 -3 22 -62z m-210 -56 c0 -68 0 -69 -30 -73 -28 -4 -29 -3
-36 49 -9 75 -6 80 59 92 4 0 7 -30 7 -68z m-100 -25 c0 -63 0 -64 -31 -70
-57 -11 -59 -10 -59 47 0 59 6 73 35 80 53 13 55 11 55 -57z m-970 -99 c30
-22 78 -57 105 -77 28 -20 140 -102 250 -180 279 -201 387 -279 408 -296 15
-12 17 -25 13 -82 -3 -45 -9 -66 -17 -64 -7 2 -91 64 -188 139 -97 75 -232
180 -301 232 -69 53 -174 134 -235 182 l-110 86 -3 57 c-3 65 -8 65 78 3z
m-291 -180 c-40 -45 -114 -127 -165 -182 -236 -258 -829 -909 -843 -927 -7 -7
-262 -61 -267 -56 -4 5 464 487 853 878 166 168 344 348 395 401 l93 96 3 -63
3 -64 -72 -83z m1571 119 c0 -36 -3 -67 -8 -70 -4 -2 -24 -7 -45 -11 l-37 -7
0 70 c0 69 0 71 28 75 65 10 62 12 62 -57z m-210 -50 c0 -61 -1 -64 -26 -70
-15 -4 -28 -5 -30 -3 -3 2 -7 28 -11 57 -5 45 -3 55 12 66 11 8 27 14 37 14
15 0 18 -9 18 -64z m-100 -19 l0 -64 -37 -11 c-21 -6 -41 -8 -46 -3 -4 4 -7
35 -5 67 3 65 -4 58 81 73 4 0 7 -27 7 -62z m-1190 -91 l0 -75 -182 -218
c-176 -210 -332 -398 -428 -513 -25 -30 -71 -87 -103 -127 -32 -39 -63 -76
-70 -81 -12 -10 -247 -55 -254 -49 -2 3 145 165 556 611 225 245 444 486 461
507 8 10 16 18 18 19 1 0 2 -33 2 -74z m1500 -90 c0 -36 -3 -67 -7 -69 -5 -2
-25 -7 -45 -11 l-38 -7 0 70 c0 75 0 76 68 80 21 1 22 -3 22 -63z m-212 -111
c-2 -2 -16 -5 -33 -7 l-30 -3 -3 63 c-3 62 -3 63 30 76 l33 14 3 -70 c2 -39 2
-72 0 -73z m-98 45 c0 -53 -3 -70 -14 -70 -7 0 -28 -3 -45 -6 l-32 -7 3 69 c3
63 5 69 28 75 58 16 60 15 60 -61z m-1191 -52 l1 -73 -63 -85 c-66 -88 -293
-401 -380 -525 -27 -38 -52 -73 -56 -77 -8 -9 -229 -50 -241 -46 -4 2 65 89
152 193 88 105 190 226 226 271 37 44 126 150 197 234 72 84 134 159 140 166
18 25 22 15 24 -58z m220 -191 c60 -67 327 -351 380 -405 13 -13 20 -27 15
-31 -9 -8 -453 -55 -459 -49 -6 6 -10 558 -5 557 3 -1 34 -33 69 -72z m-227
-139 c-1 -106 -5 -235 -8 -285 l-6 -93 -31 -1 c-18 0 -117 -13 -222 -28 -104
-16 -192 -27 -193 -25 -2 1 27 44 65 96 38 51 141 191 228 311 87 119 161 217
164 217 3 0 5 -87 3 -192z"/>
<path d="M6176 11243 c-3 -42 -6 -119 -6 -172 0 -74 -4 -102 -17 -121 -16 -22
-17 -133 -14 -1564 1 -848 3 -1542 4 -1543 2 -1 30 25 65 58 l62 60 0 1217 c0
730 -4 1222 -9 1227 -5 6 -13 129 -16 275 -4 149 -12 270 -17 277 -6 7 -13 92
-16 188 -3 127 -8 175 -17 175 -8 0 -14 -27 -19 -77z"/>
<path d="M6017 10769 l-87 -60 0 -79 0 -79 -45 -27 -45 -26 0 -97 0 -97 -82
-39 -83 -40 -3 -91 c-3 -86 -4 -92 -27 -102 l-25 -12 0 -1170 0 -1170 83 0
c48 0 117 -9 167 -20 l84 -21 73 75 72 74 3 1521 c2 837 3 1521 3 1521 0 0
-40 -27 -88 -61z"/>
<path d="M6280 10795 c0 -19 4 -35 9 -35 4 0 6 12 3 28 l-5 27 34 -27 c19 -15
33 -31 32 -37 -2 -6 5 -7 14 -4 12 5 14 3 8 -7 -6 -10 -4 -12 9 -7 14 6 17 3
12 -8 -3 -9 -2 -13 4 -10 5 3 19 1 30 -5 17 -9 20 -20 19 -78 -1 -37 -3 -58
-6 -47 -2 11 -6 30 -8 42 -3 13 -32 41 -68 66 -93 66 -87 66 -87 0 0 -47 4
-60 19 -68 11 -6 52 -32 91 -59 39 -26 72 -47 74 -45 1 2 0 43 -2 91 l-4 87
-52 41 c-28 23 -68 52 -88 65 l-38 24 0 -34z"/>
<path d="M6314 10455 l3 -76 64 -40 c35 -22 75 -47 88 -56 l24 -18 -7 55 c-4
30 -11 59 -17 65 -5 5 -9 19 -9 32 0 16 -16 33 -60 63 -93 63 -90 64 -86 -25z"/>
<path d="M7459 9991 c-14 -5 -35 -14 -47 -20 -22 -12 -22 -12 -22 -354 0 -189
-4 -347 -8 -352 -4 -6 -6 -267 -4 -581 l4 -570 51 -30 c29 -16 55 -30 59 -32
5 -2 8 401 8 896 l0 900 23 6 c12 3 28 6 35 6 9 0 12 -194 12 -936 l0 -936 60
-66 c34 -37 73 -86 88 -109 25 -40 31 -44 102 -59 200 -42 266 -56 283 -60 12
-4 17 -16 17 -44 0 -46 22 -46 -190 1 -69 15 -126 26 -127 25 -1 -1 8 -31 21
-66 l24 -65 208 -37 c115 -20 219 -37 232 -37 l22 -1 0 990 0 990 -23 58
c-113 276 -437 495 -729 491 -40 0 -85 -4 -99 -8z m433 -616 c250 -72 228 -62
228 -112 0 -24 -1 -43 -3 -43 -2 0 -50 16 -108 35 -57 20 -131 42 -164 51
-148 38 -135 30 -135 74 0 28 4 40 14 40 8 0 84 -20 168 -45z m155 -226 l73
-24 0 -44 c0 -37 -2 -42 -17 -36 -33 12 -323 94 -358 101 -33 6 -35 8 -35 48
0 24 2 45 5 48 6 6 204 -50 332 -93z m-69 -164 l142 -46 0 -39 c0 -22 -4 -40
-9 -40 -5 0 -71 18 -148 39 -76 22 -164 45 -195 52 l-58 12 0 42 c0 23 3 44 6
47 8 9 102 -15 262 -67z m-25 -182 l167 -48 0 -42 c0 -24 -1 -43 -3 -43 -2 0
-28 7 -58 16 -30 10 -119 33 -199 54 l-145 36 -3 43 -3 44 38 -6 c21 -4 113
-28 206 -54z m-79 -164 c39 -11 110 -29 159 -41 l87 -22 0 -44 c0 -31 -4 -43
-12 -39 -7 2 -94 23 -193 47 -99 23 -186 44 -192 46 -8 2 -13 20 -13 45 l0 41
46 -7 c26 -3 78 -15 118 -26z m106 -212 l135 -32 3 -43 c2 -23 1 -42 -1 -42
-3 0 -78 18 -168 39 -90 22 -181 42 -201 46 -36 6 -38 8 -38 44 0 21 2 40 6
43 5 6 27 1 264 -55z m-28 -174 l168 -38 0 -43 c0 -37 -3 -43 -17 -38 -65 19
-368 86 -389 86 -2 0 -4 19 -4 41 l0 42 38 -6 c20 -4 112 -23 204 -44z m2
-178 l166 -38 0 -39 c0 -21 -5 -38 -10 -38 -6 0 -55 11 -108 24 -53 13 -141
32 -194 42 l-98 18 0 39 0 40 39 -6 c21 -2 113 -22 205 -42z m-16 -170 l182
-39 0 -43 c0 -31 -3 -41 -14 -37 -7 3 -98 22 -202 43 l-189 39 -3 42 c-3 40
-2 42 20 38 13 -3 105 -22 206 -43z"/>
<path d="M7130 9157 l-175 -103 -3 -411 -2 -412 57 -6 c84 -9 200 -34 258 -56
28 -10 53 -19 58 -19 4 0 7 250 7 555 0 437 -3 555 -12 555 -7 0 -92 -47 -188
-103z"/>
<path d="M5333 8100 c0 -25 2 -35 4 -22 2 12 2 32 0 45 -2 12 -4 2 -4 -23z"/>
<path d="M8768 8113 c-2 -4 -2 -43 0 -85 3 -60 7 -78 18 -78 12 0 14 15 12 82
-2 50 -7 83 -15 85 -6 2 -13 0 -15 -4z"/>
<path d="M8648 8099 c-15 -8 -18 -24 -18 -85 0 -72 1 -75 23 -72 20 3 22 9 25
77 3 79 -3 95 -30 80z"/>
<path d="M8810 8020 c0 -64 3 -80 15 -80 12 0 15 16 15 80 0 64 -3 80 -15 80
-12 0 -15 -16 -15 -80z"/>
<path d="M4971 7509 c-98 -25 -201 -74 -275 -129 -34 -25 -149 -135 -256 -245
-190 -194 -197 -203 -247 -305 -77 -155 -88 -205 -88 -395 1 -155 2 -163 33
-254 60 -172 156 -305 297 -409 77 -57 130 -83 235 -118 76 -25 100 -27 225
-28 116 0 153 3 218 22 170 49 257 101 423 257 l114 106 -86 97 c-47 53 -99
121 -116 150 -17 29 -34 52 -38 50 -5 -2 -54 -47 -110 -101 -56 -54 -123 -112
-148 -128 -125 -80 -296 -91 -429 -30 -90 42 -161 114 -206 208 -30 65 -32 74
-32 188 0 115 1 123 33 190 29 61 57 93 215 252 159 158 191 186 252 215 l70
33 360 0 360 0 67 -33 c43 -21 83 -51 113 -84 65 -73 79 -103 79 -173 0 -51
-5 -68 -33 -112 l-33 -52 21 -45 c20 -41 190 -216 210 -216 19 0 134 134 156
182 55 121 70 260 40 386 -44 187 -211 380 -409 473 -139 65 -173 69 -581 68
-323 0 -368 -2 -434 -20z"/>
<path d="M8575 7510 c-22 -5 -82 -19 -132 -31 -51 -11 -93 -24 -93 -29 0 -5
-3 -15 -6 -24 -5 -12 0 -16 21 -16 28 0 67 -34 137 -122 l30 -38 -27 0 c-15 0
-73 6 -129 14 -101 15 -379 51 -447 59 l-37 5 -7 -97 c-9 -116 -42 -252 -84
-345 -17 -38 -29 -71 -27 -73 5 -5 199 -32 233 -33 22 0 23 1 25 177 3 194 3
194 64 179 l24 -6 0 -181 c0 -135 3 -181 13 -184 12 -4 213 -35 229 -35 4 0 8
83 8 185 l0 185 23 0 c49 0 51 -7 54 -201 l4 -183 187 -38 c103 -21 192 -38
199 -38 9 0 12 48 11 181 0 99 1 182 3 184 6 5 211 -23 218 -30 3 -4 6 -93 6
-200 l0 -193 105 -28 c233 -60 552 -165 873 -287 l67 -26 0 287 0 288 -147 18
c-81 9 -151 20 -155 22 -4 3 -8 34 -8 69 0 47 4 64 15 69 8 3 15 17 15 31 0
21 -5 25 -29 25 -17 0 -33 5 -36 10 -4 6 -10 8 -13 6 -4 -2 -73 4 -152 15 -80
10 -168 22 -197 25 l-52 7 -3 66 -3 66 -90 11 c-49 7 -148 19 -220 28 -71 9
-191 25 -265 36 -74 11 -141 20 -147 20 -8 0 -13 13 -13 30 0 17 4 30 9 30 4
0 152 -21 327 -47 176 -26 344 -47 374 -47 l55 -1 0 35 c0 33 -2 35 -37 38
-33 3 -37 6 -40 34 -3 36 -23 44 -188 79 -108 23 -474 36 -545 19z m435 -396
c33 -29 64 -80 52 -88 -4 -2 -27 0 -52 5 -25 5 -65 12 -90 14 -69 8 -72 10
-52 44 32 56 92 66 142 25z m424 -369 l1 -200 -25 0 -25 0 -3 203 -2 203 26
-3 27 -3 1 -200z"/>
<path d="M8927 6944 c-9 -10 -9 -322 1 -327 4 -3 21 -7 37 -8 l30 -4 0 170 0
170 -30 3 c-17 2 -34 0 -38 -4z"/>
<path d="M7695 6704 c-10 -16 -90 -101 -177 -190 -87 -88 -158 -164 -158 -167
0 -4 44 -7 98 -7 118 0 643 -33 957 -61 481 -41 962 -106 1420 -189 269 -49
711 -141 748 -155 9 -4 17 -4 17 0 0 3 -78 44 -172 90 -469 226 -1145 450
-1689 559 -259 52 -741 124 -950 142 -75 6 -75 6 -94 -22z"/>
<path d="M10391 6214 c0 -11 3 -14 6 -6 3 7 2 16 -1 19 -3 4 -6 -2 -5 -13z"/>
<path d="M1940 5526 l0 -43 62 -7 c34 -3 85 -17 113 -30 43 -19 56 -32 76 -72
l24 -49 3 -680 c4 -738 -3 -933 -35 -987 -26 -45 -74 -75 -141 -88 -109 -21
-102 -16 -102 -60 l0 -40 1000 0 c550 0 1000 1 1000 3 0 1 23 103 51 227 85
379 109 490 109 500 0 6 -15 10 -32 10 -30 0 -37 -7 -73 -68 -137 -230 -300
-386 -476 -456 -132 -51 -189 -60 -399 -61 -191 0 -196 1 -252 27 -75 35 -96
75 -109 207 -6 55 -9 392 -7 786 l3 690 23 43 c28 53 97 89 190 98 l62 7 0 43
0 44 -545 0 -545 0 0 -44z"/>
<path d="M4287 5453 c-2 -5 -2 -14 -1 -20 1 -7 2 -24 3 -38 1 -21 6 -25 33
-25 44 0 139 -28 164 -49 12 -9 30 -33 40 -52 18 -32 19 -70 19 -799 0 -763 0
-765 -22 -812 -25 -54 -55 -73 -151 -94 -37 -7 -70 -14 -74 -14 -5 0 -8 -18
-8 -40 l0 -40 515 0 515 0 0 39 c0 43 -1 43 -91 56 -70 10 -120 43 -146 95
l-23 44 0 766 c0 708 1 768 18 800 29 59 66 76 220 106 18 4 22 11 22 44 l0
40 -514 0 c-283 0 -517 -3 -519 -7z"/>
<path d="M5552 5418 l3 -41 69 -14 c38 -8 82 -21 97 -29 39 -20 76 -72 88
-124 16 -70 14 -1398 -2 -1476 -25 -119 -57 -143 -234 -180 -19 -4 -23 -11
-23 -44 l0 -40 370 0 370 0 0 40 c0 22 -2 40 -4 40 -27 0 -162 32 -185 44 -38
20 -75 69 -92 121 -9 29 -13 195 -16 625 -3 322 -3 607 -1 634 l3 50 135 -155
c75 -85 273 -311 440 -504 346 -398 349 -401 411 -470 25 -27 118 -134 207
-237 l162 -187 82 -3 c46 -2 104 -2 130 0 l48 3 0 853 c0 720 2 861 15 902 22
74 84 125 170 139 88 14 85 12 85 55 l0 40 -362 -2 -363 -3 1 -40 1 -40 52 -7
c114 -14 176 -55 207 -138 16 -40 18 -104 22 -563 2 -285 1 -525 -2 -533 -4
-11 -14 -6 -38 23 -18 21 -121 137 -228 258 -182 207 -709 810 -849 973 l-63
72 -354 0 -355 0 3 -42z"/>
<path d="M8117 5453 c-2 -5 -4 -23 -3 -42 l1 -35 72 -12 c121 -20 165 -58 183
-156 17 -90 9 -1494 -8 -1533 -30 -68 -83 -99 -203 -119 -34 -6 -37 -9 -41
-46 l-4 -40 518 0 518 0 0 39 c0 43 5 40 -95 57 -83 15 -131 48 -156 109 -8
20 -14 121 -17 305 l-4 275 93 87 c76 71 96 85 108 75 8 -7 46 -53 85 -103 39
-50 139 -179 222 -285 83 -107 183 -236 222 -288 91 -118 93 -149 16 -176 -36
-12 -39 -16 -42 -54 l-3 -41 490 0 491 0 0 39 0 40 -57 11 c-77 16 -133 43
-188 92 -25 22 -188 219 -362 437 -174 218 -363 454 -421 526 l-104 130 34 30
c19 16 119 104 222 195 104 91 222 191 265 223 107 81 239 144 353 167 51 11
94 20 96 20 1 0 2 18 2 40 l0 40 -407 -2 -408 -3 0 -40 0 -40 48 -7 c70 -10
97 -30 97 -74 0 -53 -19 -80 -132 -189 -129 -125 -695 -639 -709 -644 -15 -5
-7 766 8 801 25 56 85 92 174 104 59 8 79 24 75 62 l-3 27 -511 3 c-281 1
-513 -1 -515 -5z"/>
<path d="M4738 3103 c12 -2 32 -2 45 0 12 2 2 4 -23 4 -25 0 -35 -2 -22 -4z"/>
<path d="M7101 2984 c0 -11 3 -14 6 -6 3 7 2 16 -1 19 -3 4 -6 -2 -5 -13z"/>
<path d="M4691 2794 c0 -11 3 -14 6 -6 3 7 2 16 -1 19 -3 4 -6 -2 -5 -13z"/>
<path d="M5186 2703 c5 -5 12 -12 16 -18 4 -6 8 -2 8 8 0 9 -7 17 -17 17 -9 0
-12 -3 -7 -7z"/>
<path d="M6141 2664 c0 -11 3 -14 6 -6 3 7 2 16 -1 19 -3 4 -6 -2 -5 -13z"/>
<path d="M2671 2062 c-89 -45 -113 -166 -49 -247 43 -55 144 -72 205 -35 54
33 22 71 -39 46 -62 -25 -124 10 -134 75 -14 88 66 149 142 108 22 -11 27 -10
46 8 l21 22 -34 20 c-42 26 -111 27 -158 3z"/>
<path d="M3010 2062 c-52 -26 -80 -74 -80 -139 0 -66 19 -105 67 -138 71 -48
175 -28 223 43 33 48 35 137 4 179 -52 70 -139 93 -214 55z m144 -68 c25 -26
30 -44 26 -94 -3 -39 -19 -60 -53 -75 -72 -30 -132 14 -132 97 0 42 4 53 28
74 39 34 96 33 131 -2z"/>
<path d="M3348 1988 c-1 -51 -2 -122 -2 -158 l0 -65 29 0 30 0 0 103 c0 56 3
102 8 102 4 0 7 -3 7 -7 0 -5 31 -51 68 -103 60 -83 73 -95 98 -95 l29 0 0
155 0 155 -27 3 -28 3 0 -108 0 -108 -20 25 c-11 14 -45 62 -76 108 -48 71
-60 82 -85 82 l-29 0 -2 -92z"/>
<path d="M3734 2067 c-2 -7 -3 -78 -2 -157 l3 -145 28 -3 27 -3 1 73 c1 40 0
88 -1 106 -1 17 1 32 3 32 3 0 38 -47 79 -105 67 -98 75 -105 103 -103 l30 3
0 155 0 155 -27 3 -27 3 -3 -108 -3 -108 -59 85 c-32 47 -68 95 -79 108 -22
24 -65 30 -73 9z"/>
<path d="M4122 1923 l3 -158 100 0 100 0 0 25 c0 24 -3 25 -73 28 l-73 3 3 36
3 36 60 1 c58 1 60 2 63 29 l3 27 -65 0 -66 0 0 35 0 35 70 0 70 0 0 30 0 30
-100 0 -101 0 3 -157z"/>
<path d="M4495 2068 c-47 -26 -74 -62 -86 -114 -11 -48 -10 -56 12 -101 43
-85 130 -117 215 -77 37 18 43 34 19 54 -12 10 -22 9 -50 -4 -87 -42 -167 53
-124 147 19 43 96 62 139 35 16 -11 22 -9 34 7 21 28 20 32 -14 50 -34 17
-116 19 -145 3z"/>
<path d="M4747 2074 c-4 -4 -7 -18 -7 -31 0 -21 5 -23 45 -23 l44 0 3 -127 3
-128 30 0 30 0 2 125 1 125 47 3 c44 3 46 5 43 30 l-3 27 -116 3 c-63 1 -118
-1 -122 -4z"/>
<path d="M5727 2058 c-69 -41 -97 -145 -58 -218 29 -55 83 -81 157 -78 36 2
72 11 88 21 24 16 26 23 26 87 l0 70 -65 0 c-62 0 -65 -1 -65 -24 0 -21 6 -25
33 -28 26 -2 33 -8 35 -29 3 -22 -2 -29 -27 -37 -39 -14 -96 2 -115 31 -28 43
-24 110 9 142 27 27 89 34 127 14 17 -9 24 -7 41 9 l20 21 -34 20 c-46 28
-122 28 -172 -1z"/>
<path d="M6045 2069 c-4 -5 -4 -78 0 -160 l8 -150 26 3 c24 3 26 7 29 61 3 51
5 57 25 57 17 0 30 -15 55 -60 31 -55 36 -60 68 -60 19 0 34 2 34 4 0 3 -16
31 -35 62 l-34 58 24 22 c61 57 35 152 -47 168 -49 10 -146 7 -153 -5z m149
-55 c19 -7 21 -55 4 -72 -7 -7 -29 -12 -50 -12 l-38 0 0 45 c0 45 0 45 34 45
19 0 41 -3 50 -6z"/>
<path d="M6453 2065 c-49 -21 -83 -79 -83 -143 0 -65 19 -104 67 -137 70 -47
175 -28 222 41 54 78 29 194 -50 234 -44 23 -110 25 -156 5z m152 -78 c17 -25
20 -99 4 -129 -14 -26 -67 -48 -101 -41 -14 3 -37 16 -50 30 -30 32 -32 110
-4 142 40 44 120 43 151 -2z"/>
<path d="M6757 2073 c-2 -5 16 -77 41 -161 l45 -153 30 3 c29 3 32 8 65 108
l35 104 34 -107 c33 -104 35 -107 63 -107 28 0 30 4 55 88 14 48 35 114 46
146 25 79 25 86 -10 86 -28 0 -30 -2 -58 -105 -15 -58 -31 -105 -34 -105 -3 0
-19 46 -36 103 -29 99 -31 102 -59 102 -27 0 -29 -4 -63 -110 l-34 -110 -30
113 c-29 109 -31 112 -58 112 -15 0 -30 -3 -32 -7z"/>
<path d="M7869 2051 c-56 -56 -25 -137 60 -156 59 -13 77 -68 26 -81 -12 -3
-39 2 -60 10 -28 12 -41 13 -51 5 -41 -34 27 -74 110 -66 38 3 55 11 73 31 47
55 18 133 -55 151 -38 9 -72 33 -72 50 0 25 48 38 81 21 25 -13 29 -12 46 6
17 19 17 21 -6 39 -16 13 -39 19 -73 19 -41 0 -54 -5 -79 -29z"/>
<path d="M8140 1970 c0 -127 13 -171 59 -194 38 -20 103 -21 140 -1 47 24 61
69 61 194 l0 111 -29 0 -29 0 -4 -115 c-3 -128 -13 -148 -69 -148 -56 0 -69
28 -69 154 l0 109 -30 0 -30 0 0 -110z"/>
<path d="M8569 2060 c-75 -39 -103 -169 -52 -238 44 -60 147 -81 211 -42 36
22 38 27 17 50 -15 16 -18 16 -55 -2 -39 -19 -40 -19 -77 -1 -29 13 -41 28
-52 59 -13 37 -12 44 5 80 25 51 72 69 123 48 32 -13 36 -13 54 5 20 19 20 20
-14 40 -43 26 -112 27 -160 1z"/>
<path d="M8909 2057 c-50 -32 -82 -100 -75 -157 8 -55 40 -103 83 -124 48 -23
118 -20 160 5 34 21 34 22 16 40 -18 18 -21 18 -60 3 -37 -15 -43 -15 -75 0
-94 45 -68 196 33 196 22 0 48 -5 58 -12 15 -9 22 -8 35 5 24 24 20 37 -19 53
-52 21 -116 18 -156 -9z"/>
<path d="M9200 1920 l0 -160 100 0 100 0 0 30 0 30 -70 0 -70 0 0 38 0 38 58
-1 c55 0 57 1 60 28 3 27 3 27 -57 27 l-61 0 0 35 0 35 65 0 65 0 0 30 0 30
-95 0 -95 0 0 -160z"/>
<path d="M9494 2067 c-2 -7 -3 -78 -2 -157 l3 -145 100 0 c100 0 100 0 100 25
0 24 -3 25 -70 30 -67 5 -70 6 -69 30 1 44 3 47 29 42 14 -2 41 -1 60 2 29 6
35 11 35 31 0 24 -3 25 -65 25 l-65 0 0 35 0 35 70 0 70 0 0 30 0 30 -95 0
c-69 0 -97 -4 -101 -13z"/>
<path d="M9790 1920 l0 -163 83 5 c134 7 187 54 187 164 0 56 -29 108 -73 130
-17 9 -67 19 -114 22 l-83 5 0 -163z m167 81 c34 -21 49 -62 38 -110 -9 -42
-38 -63 -95 -69 l-50 -5 0 102 0 101 38 0 c20 0 51 -9 69 -19z"/>
<path d="M1372 1924 l3 -25 495 0 495 1 3 25 3 25 -501 0 -501 0 3 -26z"/>
<path d="M10282 1925 l3 -25 500 -1 500 -2 3 27 3 26 -506 0 -506 0 3 -25z"/>
<path d="M3435 1503 c6 -6 42 -24 80 -41 39 -16 140 -62 225 -102 225 -104
390 -170 610 -243 823 -275 1793 -341 2736 -187 560 92 1044 239 1682 512 136
58 183 85 92 53 -23 -8 -117 -35 -209 -59 -91 -25 -247 -68 -346 -96 -560
-158 -1090 -261 -1580 -307 -228 -21 -861 -24 -1075 -5 -524 46 -915 125
-1610 322 -58 17 -211 57 -340 89 -129 33 -244 63 -255 67 -14 5 -17 4 -10 -3z"/>
</g>
</svg>
